<svg version="1.2" xmlns="http://www.w3.org/2000/svg" viewBox="0 0 690 189" width="690" height="189">
	<path id="Shape 1" fill-rule="evenodd" fill="#592cdd" d="m188.9 0.7v188.2h-188.2v-188.2zm-124.9 129.3c0 2.8 2.2 5 5 5h0.9q0 0 0.1 0h49.4c2.2 0 4-1.4 4.7-3.3 0.6-0.8 0.9-1.7 0.9-2.7l-0.1-37c0-2.8-2.2-5-5-5h-0.4q0 0-0.1 0h-8.4l-0.1-29c0-2.8-2.2-5-5-5h-37c-2.7 0-5 2.2-5 5zm27-29h20v20h-19.9zm-13.1-34h19l0.1 20h-19z"/>
	<path id="Blogger" fill="#592cdd" aria-label="Blogger"  d="m250.5 82.3v44.5q0 0 11.7 0 8.7 0 12.9-4.4 3.5-3.7 3.5-17.8-0.2-10.3-4.9-16.3-4.7-6-16.2-6zm11.7 45.7h-39.8v-1.2q9 0 9.3-7.1v-62q0-8.2-9.3-8.2v-1.2h30.4q35.2 0 35.2 16.2 0 14.2-22.3 17.1 13.9 1.4 22.8 7.4 8.9 6 8.9 15.6 0 11.3-9.6 17.4-9.5 6-25.6 6zm-9.4-78.5h-2.3v31.6h2.3q8.7 0 12.9-3.6 3.5-3.1 3.5-12.8 0-8.1-3-11.5-3.2-3.7-13.4-3.7zm76.2-1.2v70.3q0 8.2 9.4 8.2v1.2h-37.5v-1.2q9.4 0 9.4-8.2v-70.3q0-8.2-9.4-8.2v-1.2h23.4q4.7 0 4.7 9.4zm44.5 79.1q9 0 11.5-6.2 2.6-6.3 2.6-23.7 0-17.3-2.6-23.6-2.5-6.3-11.5-6.3-10 0-12.3 7.8-1.7 6.2-1.7 22.1 0 16 1.7 22.2 2.3 7.7 12.3 7.7zm0 1.2q-15.8 0-24.3-8.1-8.5-8.1-8.5-23 0-14.7 8.6-22.9 8.5-8.1 24.2-8.1 15.7 0 24.3 8.1 8.6 8.2 8.6 22.9 0 14.9-8.5 23-8.5 8.1-24.4 8.1zm56.3-31.1q0 19.4 1.4 23.1 2.7 6.7 10.3 6.7 6 0 11.7-4.2v-46.7q0-2.3 0.3-4.4-5.9-4.4-12-4.4-7.5 0-10.3 6.7-1.4 3.3-1.4 23.2zm23.4 34.6v-7.5q-5.8 3.9-11.7 3.9-13.9 0-22.3-8.2-8.2-8.2-8.2-22.8 0-14.5 8.4-22.7 8.3-8.3 22.1-8.3 5.9 0 12.2 4.2 0.2 0 1.6-1.8 1.6-1.8 2.6-1.8h23.5v1.1q-9.4 0-9.4 8.2v44q0 14.7-9 22.8-9.1 8.2-25 8.2-10 0-19.3-5.1l0.7-1.1q8.9 5.1 18.6 5.1 8.4 0 11.7-4.5 3.3-4.3 3.5-13.7zm49.3-34.6q0 19.4 1.4 23.1 2.7 6.7 10.3 6.7 5.9 0 11.7-4.2v-46.7q0-2.3 0.2-4.4-5.8-4.4-11.9-4.4-7.5 0-10.3 6.7-1.4 3.3-1.4 23.2zm23.4 34.6v-7.5q-5.9 3.9-11.7 3.9-14 0-22.3-8.2-8.2-8.2-8.2-22.8 0-14.5 8.3-22.7 8.3-8.3 22.2-8.3 5.8 0 12.2 4.2 0.2 0 1.6-1.8 1.5-1.8 2.6-1.8h23.4v1.1q-9.4 0-9.4 8.2v44q0 14.7-9 22.8-9 8.2-24.9 8.2-10 0-19.4-5.1l0.7-1.1q8.9 5.1 18.7 5.1 8.4 0 11.7-4.5 3.3-4.3 3.5-13.7zm49.2-35.7h28.1q0-17.9-1.7-21.6-3.3-7.2-12.3-7.2-8.9 0-11.5 6-2.6 6.2-2.6 22.8zm14.1 32.2q-15.8 0-24.4-8.1-8.4-8.1-8.4-23 0-14.7 8.5-22.9 8.6-8.1 24.3-8.1 15.7 0 24.2 8.1 8.6 8.2 8.6 22.9h-46.9q0 20.8 2.4 24.1 4.3 5.8 11.7 5.8 8.8 0 16.5-4.3 7.7-4.4 12.3-11.4l0.9 0.6q-4.7 7.4-12.6 11.8-8 4.5-17.1 4.5zm100.8-50.4q0 3.7-2.7 6.6-2.7 2.8-6.7 2.8-3.8 0-6.6-2.7-2.8-2.7-2.8-6.7 0 0 0.5-4.7 0-4.7-4.5-4.7-7.9 0-14.7 7.8v42q0 8.2 9.3 8.2v1.2h-37.5v-1.2q9.4 0 9.4-8.2v-42.2q0-8.2-9.4-8.2v-1.1h23.5q1 0 2.1 1.8 1.3 2 1.9 3.8l0.7 2q4.5-4.2 8.2-6 4.6-2.2 13.1-2.2 6.3 0 11.2 3 5 3.1 5 8.7z"/>
</svg>